<?xml version="1.0" standalone="no"?>
<!DOCTYPE svg PUBLIC "-//W3C//DTD SVG 20010904//EN"
 "http://www.w3.org/TR/2001/REC-SVG-20010904/DTD/svg10.dtd">
<svg version="1.0" xmlns="http://www.w3.org/2000/svg"
 width="945.000000pt" height="945.000000pt" viewBox="0 0 945.000000 945.000000"
 preserveAspectRatio="xMidYMid meet">
<metadata>
Created by potrace 1.11, written by Peter Selinger 2001-2013
</metadata>
<g transform="translate(0.000000,945.000000) scale(0.100000,-0.100000)"
fill="#000000" stroke="none">
<path d="M8536 9352 c-122 -185 -267 -354 -361 -420 -43 -31 -68 -42 -83 -40
-18 3 -19 -2 -7 -40 6 -22 5 -23 -15 -12 -12 6 -25 8 -28 4 -4 -4 -2 -8 3 -11
6 -2 21 -9 34 -16 25 -13 29 -34 5 -29 -8 2 -14 -4 -14 -13 0 -9 5 -13 10 -10
18 11 10 -16 -14 -48 -13 -18 -36 -54 -50 -81 -60 -109 -185 -273 -287 -380
-33 -33 -59 -64 -59 -68 0 -5 -4 -8 -10 -8 -21 0 -8 21 53 91 112 130 195 236
266 342 30 45 46 77 38 77 -7 0 -21 -15 -30 -32 -48 -91 -209 -294 -306 -383
-36 -33 -74 -69 -86 -81 -12 -11 -28 -18 -35 -16 -8 3 -10 -2 -5 -17 5 -18 2
-21 -22 -21 -30 0 -62 -28 -55 -48 2 -7 -3 -12 -11 -12 -9 0 -19 -18 -27 -45
-7 -25 -31 -71 -53 -103 -23 -32 -41 -71 -43 -89 -2 -30 1 -34 43 -53 43 -19
45 -21 30 -38 -13 -14 -14 -21 -5 -30 6 -6 9 -15 5 -19 -4 -3 -21 6 -37 22
-25 24 -30 26 -30 11 0 -12 -5 -16 -15 -12 -10 4 -15 -1 -15 -14 0 -11 -2 -20
-3 -20 -10 0 -92 83 -89 91 2 10 -12 12 -21 2 -4 -3 -1 -13 6 -22 7 -9 1 -8
-18 5 -16 11 -58 31 -92 43 -34 13 -63 26 -65 30 -2 3 -16 17 -33 30 l-30 23
50 -7 c28 -4 59 -9 70 -12 11 -2 -22 23 -73 56 -96 63 -113 72 -92 46 8 -9 9
-15 2 -15 -6 0 -14 5 -17 10 -4 6 -30 26 -60 44 -68 44 -95 67 -95 83 0 6 -16
17 -36 25 -19 7 -40 23 -47 37 -15 30 -92 75 -115 66 -9 -3 -13 -3 -9 1 9 10
-267 145 -388 190 -49 19 -106 34 -125 33 -47 -1 -155 -42 -155 -59 0 -7 -16
-19 -35 -25 -22 -7 -29 -14 -20 -17 8 -3 -57 -8 -144 -13 -112 -5 -164 -11
-173 -21 -8 -8 -36 -13 -66 -13 -92 -1 -118 -11 -96 -38 8 -9 1 -16 -25 -27
-61 -25 -101 -29 -115 -12 -14 16 -74 22 -105 10 -16 -6 -23 -34 -8 -34 10 0
46 -79 39 -86 -6 -6 -37 24 -52 51 -8 13 -17 16 -34 10 -18 -6 -21 -9 -10 -16
8 -5 10 -9 5 -9 -5 0 -4 -6 2 -12 7 -10 4 -21 -14 -41 -13 -15 -26 -27 -29
-27 -3 0 -4 -3 -3 -7 7 -33 12 -41 24 -36 8 3 14 0 14 -6 0 -6 -7 -11 -15 -11
-8 0 -15 -9 -15 -20 0 -11 -11 -30 -25 -42 -14 -12 -25 -27 -25 -34 0 -7 -8
-10 -20 -7 -22 6 -22 40 -1 83 9 19 5 17 -19 -10 -18 -21 -30 -45 -30 -62 0
-28 -22 -39 -35 -18 -3 6 2 10 12 10 14 0 15 2 4 9 -8 6 -12 19 -9 35 4 17 1
25 -6 23 -6 -2 -10 -11 -8 -20 1 -9 -9 -24 -23 -33 -13 -9 -22 -20 -19 -25 3
-5 0 -9 -5 -9 -6 0 -11 3 -11 8 0 9 -56 72 -64 72 -4 0 -5 -4 -2 -9 3 -5 -2
-8 -12 -7 -13 1 -16 -6 -14 -26 2 -20 -3 -28 -19 -33 -20 -7 -20 -8 -6 -17 21
-11 37 -3 37 20 0 15 2 15 10 2 9 -13 11 -13 19 0 8 12 14 10 33 -12 17 -20
27 -25 38 -18 21 14 30 12 30 -4 0 -9 11 -15 27 -16 91 -2 117 -6 121 -17 2
-7 -5 -16 -15 -19 -10 -3 -26 -10 -35 -15 -11 -5 -18 -5 -18 0 0 5 -22 12 -48
16 -26 3 -61 8 -77 11 -17 2 -55 6 -85 8 -180 15 -216 20 -223 32 -4 8 -15 14
-23 14 -8 0 -25 5 -37 12 -12 6 -38 13 -57 15 -19 2 -45 5 -57 8 -14 3 -23 1
-23 -7 0 -7 -5 -6 -13 4 -6 9 -23 19 -37 23 -23 7 -24 7 -8 -16 8 -14 19 -39
23 -57 6 -28 10 -32 28 -26 42 14 197 0 197 -17 0 -5 6 -9 13 -9 7 0 29 -9 49
-20 21 -11 55 -23 78 -26 22 -4 40 -12 40 -18 0 -6 5 -3 11 7 13 23 124 25
132 2 4 -8 2 -17 -3 -20 -12 -7 -13 -26 -2 -23 4 1 17 -3 30 -10 12 -7 30 -12
40 -11 36 3 43 -1 37 -21 -5 -15 -2 -20 13 -20 11 0 23 6 25 13 4 10 6 10 6 0
1 -17 21 -17 21 0 0 9 14 14 41 15 22 1 44 4 49 7 5 3 22 -3 38 -12 35 -20 38
-59 6 -76 -29 -15 -84 -70 -84 -83 0 -7 -8 -15 -19 -19 -10 -3 -27 -15 -37
-26 -18 -20 -18 -20 10 -10 40 16 42 14 16 -14 -12 -13 -45 -32 -71 -40 -55
-18 -65 -34 -19 -27 32 5 39 -8 15 -28 -15 -13 -12 -30 6 -30 5 0 19 16 30 35
12 20 29 40 39 45 14 8 16 5 12 -15 -2 -13 -32 -51 -66 -83 -62 -60 -130 -92
-192 -92 -27 0 -41 -17 -25 -33 8 -8 17 -8 33 0 13 7 34 14 48 16 14 3 36 8
50 12 24 6 24 6 -5 -19 -16 -15 -41 -29 -55 -32 -14 -3 -34 -10 -45 -17 -11
-6 -40 -22 -65 -35 -38 -20 -40 -23 -15 -17 83 17 86 16 55 -17 -19 -21 -19
-21 8 -35 42 -22 46 -30 21 -44 -38 -20 -148 -38 -153 -25 -3 7 -8 5 -15 -4
-9 -13 -11 -13 -11 2 0 20 -37 48 -64 48 -18 0 -56 -35 -56 -52 0 -4 -7 -8
-15 -8 -17 0 -20 -16 -5 -25 6 -3 10 -11 10 -18 0 -6 -6 -2 -14 8 -14 19 -14
19 -35 0 -12 -10 -19 -25 -16 -32 2 -8 0 -11 -5 -8 -6 4 -10 -5 -10 -20 0 -14
4 -24 9 -21 5 3 14 -1 21 -9 11 -14 7 -19 -12 -16 -5 0 -8 -4 -8 -9 0 -6 -6
-10 -14 -10 -8 0 -16 -7 -20 -15 -3 -8 -1 -15 4 -15 6 0 10 -4 10 -10 0 -5 -7
-7 -15 -4 -12 5 -15 -3 -15 -35 0 -23 5 -41 10 -41 6 0 10 -7 10 -15 0 -8 -5
-15 -11 -15 -7 0 -9 -10 -7 -25 3 -14 2 -25 -3 -25 -14 0 -20 -37 -9 -65 7
-19 15 -25 26 -21 10 4 14 2 10 -6 -3 -7 -9 -21 -12 -30 -3 -9 -12 -19 -20
-22 -17 -7 -18 6 -2 22 9 9 7 12 -9 12 -17 0 -24 -12 -38 -62 -9 -35 -32 -90
-50 -123 -34 -63 -102 -255 -130 -365 -21 -88 -34 -110 -61 -110 -19 0 -30
-13 -56 -70 -36 -76 -47 -87 -40 -39 5 31 4 31 -29 24 -38 -8 -38 -9 -94 -116
-22 -42 -60 -99 -85 -126 -62 -67 -85 -103 -66 -103 7 0 16 -6 18 -12 8 -21
-2 -37 -18 -31 -8 3 -23 -4 -33 -16 -10 -11 -23 -21 -30 -21 -6 0 -11 -4 -11
-10 0 -5 -15 -27 -33 -47 -41 -46 -107 -153 -107 -173 0 -13 -2 -13 -11 0 -9
12 -10 11 -6 -7 3 -12 -1 -27 -9 -34 -8 -6 -14 -18 -14 -26 0 -8 -4 -11 -10
-8 -6 3 -10 -4 -10 -16 0 -36 -22 -99 -33 -92 -6 3 -7 1 -3 -5 3 -6 1 -23 -5
-38 -8 -23 -12 -25 -19 -14 -13 21 -13 -30 0 -64 6 -17 6 -27 -1 -31 -5 -4 -7
-16 -3 -27 11 -36 -15 -10 -48 49 -17 30 -37 57 -44 60 -15 5 -74 -24 -74 -37
0 -19 18 -19 23 1 7 26 54 24 49 -2 -1 -9 4 -19 13 -23 8 -3 15 -12 15 -20 0
-7 11 -21 25 -30 14 -9 25 -24 25 -33 0 -16 116 -133 131 -133 7 0 69 -67 69
-74 0 -2 -11 -3 -25 -2 -14 0 -25 5 -25 9 0 5 -4 6 -8 3 -10 -6 -162 80 -162
92 -1 13 -40 57 -40 45 0 -7 14 -28 30 -46 17 -19 30 -38 30 -42 0 -4 22 -52
50 -108 28 -58 62 -149 79 -212 16 -60 33 -121 39 -135 5 -14 13 -52 17 -84 4
-33 9 -66 12 -75 10 -30 -23 23 -37 59 -7 19 -23 58 -35 85 -24 53 -34 86 -60
200 -17 78 -44 145 -57 145 -12 0 -10 -24 11 -130 11 -52 27 -156 36 -230 8
-74 20 -143 26 -153 6 -12 6 -24 -1 -37 -6 -11 -12 -42 -14 -68 -5 -59 -4 -57
-19 -43 -17 13 -28 4 -20 -17 5 -11 2 -14 -10 -9 -9 4 -24 10 -32 13 -8 3 -15
2 -15 -3 0 -10 139 -83 158 -83 7 0 12 -11 12 -25 0 -35 -8 -33 -125 20 -16 8
-39 16 -50 18 -11 2 -19 9 -17 16 2 8 -4 10 -18 6 -11 -4 -20 -2 -20 4 0 6 -7
11 -15 11 -8 0 -15 5 -15 10 0 15 -70 12 -71 -2 -2 -20 -2 -21 6 -45 4 -17 2
-23 -8 -23 -8 0 -17 -7 -21 -15 -3 -8 -13 -15 -23 -15 -10 -1 -36 -16 -58 -35
-36 -31 -38 -36 -25 -49 10 -10 39 -16 80 -18 57 -3 66 -6 77 -28 7 -14 13
-42 13 -63 0 -23 4 -36 10 -32 6 4 13 -7 16 -24 4 -20 12 -31 24 -31 17 0 30
-51 30 -121 0 -32 16 -40 23 -11 2 11 7 6 14 -18 6 -20 6 -39 2 -44 -11 -12
-12 -46 -2 -45 19 3 23 -2 11 -15 -7 -8 -17 -12 -22 -9 -4 3 -5 -4 -2 -15 5
-16 -6 -35 -51 -82 -32 -34 -62 -70 -68 -80 -5 -10 -27 -30 -49 -45 -47 -32
-68 -52 -64 -61 2 -4 -26 -33 -62 -63 -36 -30 -64 -59 -62 -63 1 -4 -10 -8
-25 -8 -46 0 -72 -11 -66 -26 3 -8 0 -14 -6 -14 -6 0 -11 -4 -11 -10 0 -5 7
-10 15 -10 8 0 15 -5 15 -11 0 -6 -8 -8 -19 -4 -24 7 -47 -16 -56 -55 -4 -17
-12 -29 -18 -27 -21 8 -64 -22 -71 -47 -3 -14 -20 -48 -36 -76 -17 -28 -30
-55 -30 -60 0 -6 -4 -10 -9 -10 -7 0 -49 -90 -54 -117 -1 -4 -28 -33 -61 -64
-32 -31 -56 -61 -52 -67 4 -6 -50 -67 -119 -136 -70 -69 -121 -126 -114 -126
8 0 6 -6 -4 -18 -10 -10 -15 -22 -12 -25 3 -4 2 -5 -1 -3 -3 2 -29 -11 -57
-30 -28 -19 -63 -34 -78 -34 -28 0 -55 -23 -45 -38 3 -5 -4 -16 -15 -26 -14
-11 -19 -25 -16 -38 7 -25 -16 -73 -39 -82 -12 -4 -15 -14 -11 -33 3 -15 -2
-41 -10 -57 -15 -28 -14 -31 8 -49 l24 -20 -23 6 c-41 10 -133 -54 -103 -72 9
-6 10 -11 2 -15 -6 -4 -11 -1 -11 6 -1 7 -10 2 -21 -12 -39 -47 -104 -122
-136 -157 -18 -19 -33 -38 -33 -42 0 -5 -9 -16 -20 -26 -12 -11 -18 -26 -15
-35 5 -17 -40 -57 -57 -52 -5 1 -8 -4 -8 -11 0 -35 -146 -137 -197 -137 -18 0
-33 -5 -33 -11 0 -7 -8 -18 -17 -25 -17 -11 -16 -13 9 -19 27 -7 70 -45 51
-45 -6 0 -27 7 -48 16 l-38 15 5 -25 c3 -14 2 -24 -3 -23 -12 3 -89 -152 -78
-158 5 -4 14 -3 19 0 17 10 11 -18 -10 -53 -28 -45 -11 -71 23 -37 13 13 16
13 21 0 3 -8 1 -17 -4 -20 -32 -20 22 -102 58 -91 16 6 22 -1 33 -39 13 -45
34 -59 46 -29 3 8 17 20 30 25 14 5 27 18 30 29 3 11 15 22 27 26 11 4 38 18
59 31 81 51 16 -40 -80 -112 -40 -30 -111 -129 -105 -148 2 -5 -4 -7 -13 -4
-8 4 -15 2 -15 -3 0 -6 9 -10 20 -10 12 0 32 -7 45 -16 24 -16 25 -15 26 7 1
17 3 19 6 7 2 -9 12 -20 22 -23 10 -3 24 -17 31 -30 l13 -25 1237 0 1236 0 12
46 c12 43 11 48 -8 61 -11 8 -19 17 -16 21 2 4 16 79 31 167 24 144 46 232 67
260 4 6 44 52 90 104 46 52 103 117 127 145 24 28 48 53 54 55 21 8 -5 -68
-67 -189 -34 -69 -73 -154 -86 -190 -12 -36 -36 -92 -52 -125 -40 -79 -114
-271 -122 -318 l-7 -37 147 0 146 0 -6 24 c-9 36 6 39 40 8 16 -15 39 -28 52
-29 24 -2 27 4 12 27 -8 12 -10 12 -10 1 0 -11 -5 -10 -20 4 -11 10 -20 24
-20 30 0 15 -21 21 -102 30 -39 5 -58 12 -58 21 0 18 96 256 163 401 30 65 57
127 61 137 4 13 10 16 17 9 15 -15 -5 -190 -36 -303 -43 -163 -55 -237 -36
-226 6 4 11 14 11 22 0 8 9 34 19 57 10 23 26 80 36 127 9 47 23 102 31 123 8
20 14 54 14 75 0 38 19 92 32 92 4 0 10 -4 13 -10 3 -5 10 -10 16 -10 9 0 -60
112 -73 118 -4 2 -1 19 7 39 8 19 15 44 15 54 0 45 51 5 88 -68 12 -22 27 -43
34 -45 7 -3 13 -11 13 -20 0 -16 175 -152 267 -208 32 -19 70 -44 85 -56 l26
-21 -34 -43 c-33 -41 -150 -110 -189 -110 -12 0 -13 -2 -1 -9 7 -5 10 -14 7
-20 -4 -6 7 -30 25 -54 18 -23 34 -44 35 -46 2 -2 47 -4 101 -5 110 -2 155
-20 149 -59 -5 -33 -60 -46 -88 -21 -20 18 -21 18 -15 1 4 -10 7 -23 7 -28 0
-5 138 -9 335 -9 339 0 363 3 318 35 -16 12 -16 14 0 29 9 10 17 30 17 46 0
16 8 35 18 42 19 15 28 58 11 58 -22 0 -1 67 44 147 30 52 50 102 57 144 14
79 23 95 60 114 29 15 31 15 39 -7 8 -23 9 -22 45 14 20 20 44 38 54 40 28 5
20 33 -10 36 -33 4 -37 17 -6 25 25 7 38 1 38 -17 0 -8 16 -16 36 -19 55 -9
83 -59 48 -87 -11 -10 -14 -23 -9 -52 7 -39 -9 -55 -22 -22 -4 11 -13 14 -30
10 -13 -4 -32 -2 -43 4 -25 14 -30 3 -20 -50 8 -41 5 -51 -27 -110 -20 -36
-41 -68 -47 -72 -8 -5 -8 -8 0 -8 18 0 74 52 67 64 -3 6 -2 8 2 3 5 -4 20 4
35 18 14 14 52 32 84 40 71 19 71 19 91 -1 13 -13 14 -19 4 -25 -8 -4 -11 -11
-7 -14 3 -4 25 5 47 19 40 26 53 46 29 46 -7 0 -1 11 14 25 36 33 48 32 97 -9
23 -19 57 -40 76 -46 19 -6 35 -16 35 -21 0 -5 6 -9 13 -9 18 0 117 -44 117
-52 0 -12 -38 -10 -45 2 -3 6 -22 10 -41 10 -24 0 -33 4 -28 12 4 6 3 8 -4 4
-6 -3 -13 -20 -17 -36 -5 -24 -12 -30 -33 -30 -24 0 -80 -12 -121 -26 -25 -8
32 -42 84 -49 64 -9 93 -24 48 -25 -35 0 -242 -65 -257 -80 -7 -7 10 -10 47
-10 31 0 57 -3 57 -7 0 -5 -16 -18 -35 -31 -25 -16 -50 -22 -92 -23 -32 0 -94
-4 -138 -9 -84 -8 -100 -6 -74 13 9 7 19 22 23 35 6 18 4 22 -14 22 -12 0 -20
-5 -18 -12 2 -6 -12 -26 -33 -45 -39 -35 -79 -43 -99 -18 -11 13 -15 13 -41
-1 -16 -8 -29 -19 -29 -24 0 -6 197 -10 505 -10 296 0 505 3 505 9 0 5 -17 16
-39 24 -35 15 -97 74 -87 84 2 2 35 -9 73 -25 79 -35 96 -38 140 -28 26 6 49
0 116 -28 l83 -36 196 0 196 0 -2 25 c-2 13 -14 39 -28 57 -47 63 -79 128 -73
147 4 13 -3 25 -22 39 -43 32 -21 36 36 7 29 -14 56 -23 62 -19 7 4 8 29 4 69
-5 43 -3 65 5 70 8 5 7 13 -4 31 -20 30 -20 40 -1 24 19 -16 19 -6 -1 24 -17
28 -5 42 23 27 10 -5 26 -12 35 -15 9 -3 27 -24 39 -48 32 -65 37 -69 60 -55
11 7 19 23 19 39 0 34 3 34 42 7 16 -12 32 -19 35 -16 3 3 -7 31 -21 63 -34
74 -34 95 -1 64 14 -13 25 -19 25 -13 0 11 -74 187 -91 217 -17 29 -26 155
-16 210 12 68 -1 242 -17 226 -6 -6 -11 -42 -11 -80 0 -38 -4 -72 -8 -76 -23
-23 11 303 42 406 11 36 27 99 36 140 35 170 49 212 142 420 9 19 21 38 27 42
6 4 11 13 12 20 0 7 2 20 3 28 1 8 17 25 36 38 32 20 34 25 24 44 -6 12 -13
42 -15 67 -10 149 -14 174 -27 189 -19 22 -31 72 -17 72 5 0 10 10 10 23 0 12
7 31 15 41 8 11 15 30 15 42 0 53 41 78 54 32 3 -13 15 -34 27 -48 11 -14 17
-19 13 -11 -5 9 -3 12 4 7 7 -4 12 -14 12 -23 0 -9 6 -13 15 -9 11 4 15 -2 15
-23 0 -16 -7 -34 -15 -41 -22 -18 -18 -30 10 -30 59 0 126 61 145 130 9 33 15
40 35 40 14 0 25 5 25 12 0 8 3 9 10 2 7 -7 4 -24 -7 -52 -9 -23 -13 -45 -10
-49 13 -12 89 21 128 56 35 32 55 63 116 179 9 17 22 32 29 32 6 0 17 7 24 15
7 8 20 15 29 15 10 0 38 13 64 30 26 16 53 30 60 30 24 0 99 83 114 125 7 23
22 51 31 61 10 11 26 33 36 49 10 17 36 40 59 51 59 30 81 71 80 154 0 77 -5
90 -33 83 -17 -5 -18 -3 -7 21 13 29 27 34 27 11 0 -9 7 -26 16 -40 8 -13 16
-46 17 -73 2 -56 7 -57 31 -9 18 40 18 103 -1 118 -7 6 -13 19 -13 28 0 21
-32 52 -79 78 -40 22 -49 38 -26 47 10 4 31 -10 60 -41 25 -26 45 -41 45 -34
0 18 -32 64 -60 86 -14 10 -41 37 -61 58 -30 32 -36 46 -37 83 0 44 0 45 21
31 12 -7 30 -16 40 -20 16 -6 17 -2 11 31 -18 105 -69 222 -123 280 -17 18
-31 38 -31 43 0 6 -9 7 -20 4 -14 -5 -20 -2 -20 9 0 21 -39 21 -47 0 -3 -9 -7
-32 -8 -53 -3 -51 -3 -51 -22 -52 -10 -1 -5 -4 11 -8 16 -3 31 -12 34 -20 3
-8 0 -11 -7 -7 -6 4 -27 -2 -46 -14 l-35 -22 0 21 c0 17 -6 21 -30 21 -36 0
-39 -15 -7 -31 27 -14 37 -28 37 -52 0 -15 -3 -16 -21 -7 -30 17 -131 49 -151
50 -10 0 -25 -11 -33 -24 -15 -22 -14 -26 7 -59 13 -20 31 -36 41 -37 11 0 29
-8 42 -18 31 -24 16 -52 -28 -52 -26 -1 -29 -3 -15 -10 18 -11 133 -23 211
-23 45 0 61 -9 35 -21 -7 -3 -4 -4 7 -1 12 3 33 -7 55 -25 38 -32 30 -39 -16
-15 -16 8 -36 15 -45 15 -8 0 -19 4 -25 9 -21 19 -92 27 -164 19 -41 -4 -142
-12 -225 -17 -121 -7 -171 -15 -260 -41 -205 -59 -204 -59 -198 -45 2 7 21 25
41 38 20 14 57 43 82 66 24 23 49 41 55 41 5 0 3 5 -5 10 -20 13 -39 12 -20
-1 13 -9 13 -10 0 -6 -24 6 -18 103 9 150 31 56 28 64 -26 63 -41 -1 -48 -4
-54 -26 l-6 -25 -10 25 c-26 64 -26 68 6 75 22 5 35 17 50 49 12 23 21 46 21
50 0 4 11 22 25 40 14 18 25 38 25 44 0 7 3 12 8 12 21 1 43 30 37 49 -8 25
-28 27 -46 5 -21 -26 -50 -32 -78 -17 -14 7 -33 13 -41 13 -8 0 6 20 34 45 26
25 53 45 59 45 12 0 36 31 37 48 0 9 -10 11 -35 6 -19 -3 -35 -4 -35 0 0 9 58
36 79 36 11 0 40 8 63 19 87 37 185 63 261 69 54 3 77 1 77 -7 0 -6 -7 -11
-16 -11 -14 0 -14 -3 -4 -15 7 -8 23 -15 37 -15 13 0 33 -5 45 -11 26 -14 38
-1 15 16 -20 15 -8 28 17 19 11 -4 14 -13 10 -26 -4 -14 0 -21 15 -25 23 -6
27 -19 9 -26 -10 -4 -10 -6 0 -6 6 -1 12 -8 12 -16 0 -9 8 -19 19 -23 14 -5
17 -12 10 -29 -10 -29 -33 -29 -60 -2 -15 15 -19 28 -14 46 6 24 5 25 -29 19
-24 -5 -38 -2 -49 9 -10 9 -18 11 -22 5 -3 -5 -24 -10 -46 -10 -21 0 -39 -4
-39 -9 0 -12 26 -32 33 -25 11 11 67 -21 67 -38 0 -10 6 -18 14 -18 9 0 12 -7
9 -18 -3 -14 8 -27 45 -50 27 -18 52 -32 55 -32 16 0 86 -58 79 -65 -4 -4 3
-4 16 -1 14 5 22 3 22 -4 0 -6 5 -8 10 -5 6 4 -4 16 -21 28 -32 22 -49 47 -32
47 5 0 18 -8 29 -17 11 -10 35 -27 54 -37 19 -11 44 -31 54 -44 27 -34 69 -72
80 -72 5 0 15 -8 22 -17 11 -15 12 -9 7 42 -4 44 -13 71 -34 102 -16 23 -29
46 -29 52 0 6 -4 11 -10 11 -5 0 -10 5 -10 10 0 13 -68 80 -81 80 -6 0 -7 5
-4 10 8 13 -42 32 -65 25 -29 -9 -34 14 -6 24 60 23 256 -101 271 -171 4 -15
10 -28 15 -28 5 0 22 -28 37 -63 56 -120 54 -117 49 -70 -7 77 -48 144 -142
237 -48 47 -84 86 -80 86 5 0 31 -17 59 -37 l50 -37 -19 30 c-10 16 -25 35
-32 43 -17 18 -7 27 13 11 21 -17 19 -7 -10 56 -31 67 -32 83 -4 58 22 -19 22
-19 16 6 -3 14 -9 64 -12 113 -6 75 -5 87 8 87 10 0 18 -13 23 -35 12 -67 16
-27 4 47 -13 84 -132 463 -154 493 -20 26 -21 3 -1 -34 8 -16 41 -107 73 -203
41 -121 58 -184 54 -207 -2 -17 -6 -30 -8 -28 -6 5 -136 391 -137 405 0 6 -5
12 -10 12 -5 0 -7 9 -4 20 3 12 1 18 -5 14 -6 -4 -8 2 -3 16 5 15 3 20 -3 16
-13 -8 -26 29 -16 45 4 8 3 9 -4 5 -8 -4 -12 0 -12 12 0 10 -20 48 -44 85 -25
36 -48 83 -52 104 -6 35 -49 133 -58 133 -6 0 0 -45 8 -58 3 -6 1 -23 -6 -39
-8 -20 -12 -24 -15 -12 -3 11 -11 15 -22 12 -14 -3 -25 8 -45 48 -15 28 -25
60 -23 70 8 28 -34 135 -86 220 -40 66 -75 128 -142 256 -12 22 -26 58 -30 79
-3 21 -15 54 -25 74 -20 37 -170 202 -170 186 0 -5 -9 -1 -20 9 -11 10 -20 23
-20 28 0 6 9 0 20 -13 27 -31 26 -16 -1 22 -32 44 -41 20 -33 -88 4 -63 3 -94
-5 -98 -6 -4 -11 -16 -11 -27 0 -11 -4 -18 -9 -14 -5 3 -12 36 -16 73 -3 37
-15 110 -25 162 -28 141 -33 180 -23 180 5 0 14 -19 21 -42 13 -46 38 -85 48
-75 3 3 -3 18 -14 34 -11 15 -27 55 -37 88 -9 33 -24 84 -33 113 -14 44 -14
59 -4 98 10 37 10 50 0 63 -15 18 -42 37 -45 30 -1 -2 -13 6 -26 19 -14 13
-43 26 -65 29 -34 5 -43 1 -66 -23 -18 -19 -26 -37 -23 -51 3 -15 -1 -23 -9
-23 -17 0 -18 32 -2 48 9 9 -6 12 -69 12 -81 0 -181 23 -247 57 -28 14 -29 16
-12 29 20 14 70 11 90 -5 10 -9 12 -6 9 14 -3 15 -21 35 -49 52 -42 27 -63 54
-26 34 15 -8 30 6 95 85 l77 94 58 0 c32 0 62 3 65 7 4 3 39 6 77 6 82 -1 166
25 192 60 l17 22 -4 -24 c-3 -15 5 -36 23 -60 32 -42 44 -53 134 -115 l68 -46
50 12 51 12 37 -37 c21 -20 42 -37 48 -37 5 0 34 -22 64 -50 30 -27 79 -66
110 -87 30 -20 78 -53 105 -73 49 -36 52 -37 190 -48 388 -33 428 -37 720 -88
77 -13 141 -24 142 -24 2 0 3 38 3 85 l0 85 -37 24 c-66 43 -195 72 -433 100
-227 26 -301 42 -420 92 -70 29 -143 81 -137 98 4 13 67 28 232 56 66 12 224
42 350 67 181 36 253 46 337 47 l108 1 0 65 0 65 -63 35 c-57 32 -100 43 -217
56 -88 10 -530 -104 -757 -196 -57 -22 -140 -52 -185 -66 -116 -35 -148 -25
-245 76 -40 41 -73 78 -73 81 0 4 25 -1 55 -9 67 -19 78 -11 80 51 2 61 4 69
14 63 5 -3 12 5 15 19 9 35 -15 76 -63 109 -39 27 -45 28 -131 24 -51 -2 -90
0 -90 5 0 5 -6 7 -14 4 -8 -3 -20 1 -27 9 -10 12 -9 13 4 8 10 -3 21 2 29 15
7 12 21 21 30 21 11 0 18 8 18 20 0 39 149 290 171 290 5 0 9 7 9 15 0 9 7 18
15 21 8 4 15 12 15 20 0 8 5 14 10 14 6 0 10 7 10 16 0 8 4 12 10 9 5 -3 7 0
4 8 -3 8 3 20 12 28 16 12 17 12 9 -1 -4 -8 4 -4 19 10 15 13 22 26 17 28 -6
2 -8 8 -5 14 4 6 10 5 15 -3 8 -12 11 -12 18 1 5 8 7 18 5 22 -3 4 1 6 8 3 11
-4 78 73 78 90 0 8 64 64 74 65 4 0 6 -8 4 -18 -5 -17 -2 -17 18 -8 24 11 29
23 25 63 -2 27 15 39 34 23 11 -9 14 -6 13 18 -1 15 12 50 28 77 33 57 129
186 171 231 16 17 27 37 25 44 -3 7 0 10 7 6 6 -4 11 -1 11 8 0 23 61 88 77
82 8 -3 12 -2 9 2 -3 5 4 44 15 88 17 66 20 95 14 177 l-7 97 -84 0 -84 0 -64
-98z m-166 -286 c0 -2 -8 -10 -17 -17 -16 -13 -17 -12 -4 4 13 16 21 21 21 13z
m-117 -118 c-68 -68 -85 -80 -95 -69 -11 11 -8 17 16 35 17 11 48 37 70 57 38
33 74 58 86 59 3 0 -32 -37 -77 -82z m-123 -106 c0 -13 -12 -22 -22 -16 -10 6
-1 24 13 24 5 0 9 -4 9 -8z m51 -78 c12 -14 11 -16 -5 -13 -11 2 -21 10 -24
17 -5 17 13 15 29 -4z m-2089 -372 c14 -11 15 -18 7 -29 -13 -15 -43 -18 -34
-3 3 5 -8 18 -24 28 l-31 19 33 0 c17 0 40 -6 49 -15z m-97 -12 c-28 -12 -55
-12 -55 0 0 6 17 10 38 9 30 0 33 -2 17 -9z m265 -70 c27 -7 22 -8 -25 -4 -33
3 -76 9 -95 14 -27 7 -22 8 25 4 33 -3 76 -9 95 -14z m-693 4 c-3 -3 -12 -4
-19 -1 -8 3 -5 6 6 6 11 1 17 -2 13 -5z m73 -23 c0 -5 -17 -17 -37 -28 -117
-59 -145 -75 -141 -79 3 -2 56 20 119 50 98 47 127 56 194 62 44 4 78 4 75 1
-3 -3 -26 -20 -51 -39 -26 -18 -94 -71 -151 -118 -57 -47 -115 -92 -128 -101
-23 -15 -23 -18 -13 -63 11 -49 -1 -121 -19 -110 -4 3 -13 -7 -18 -21 -6 -15
-17 -37 -26 -48 -15 -21 -15 -21 -10 -2 3 11 2 26 -3 34 -5 7 -4 26 3 42 14
37 -6 55 -34 31 -15 -12 -16 -19 -7 -33 9 -14 9 -26 0 -49 -7 -17 -7 -32 -2
-36 5 -3 9 0 9 6 0 6 5 8 10 5 6 -3 10 -12 10 -20 0 -11 -15 -13 -65 -10 -36
2 -68 6 -73 9 -10 6 -62 1 -84 -8 -12 -6 -17 -2 -20 14 l-3 22 -24 -21 c-13
-12 -28 -21 -33 -21 -14 0 -9 20 7 26 9 4 14 14 13 23 -2 10 3 15 14 13 22 -4
55 55 39 71 -8 8 -11 6 -11 -6 0 -9 -4 -17 -9 -17 -15 0 -28 24 -35 63 -4 21
-11 35 -15 32 -5 -3 -12 2 -15 11 -4 10 1 18 13 21 24 6 36 32 21 47 -15 15
-12 30 4 16 12 -9 19 -6 38 16 52 62 54 63 110 59 29 -1 43 -1 30 2 -12 2 -20
9 -16 14 3 6 -2 19 -12 30 -9 10 -15 21 -13 23 19 16 215 81 263 86 91 11 96
11 96 1z m244 -23 c-17 -19 -17 -21 -1 -15 19 7 49 -1 42 -13 -2 -4 -19 -7
-36 -8 -17 0 -36 -5 -42 -11 -5 -5 -15 -8 -21 -5 -6 2 -33 -19 -61 -46 -27
-28 -56 -50 -65 -50 -22 1 99 110 122 110 11 0 16 5 13 10 -3 6 -2 10 4 10 5
0 13 9 16 20 4 12 15 20 27 20 21 0 21 0 2 -22z m513 6 c-3 -3 -12 -4 -19 -1
-8 3 -5 6 6 6 11 1 17 -2 13 -5z m110 -30 c-3 -3 -12 -4 -19 -1 -8 3 -5 6 6 6
11 1 17 -2 13 -5z m-1317 -49 c0 -8 -9 -15 -20 -15 -11 0 -20 7 -20 15 0 8 9
15 20 15 11 0 20 -7 20 -15z m648 -23 c2 -12 -1 -22 -6 -22 -6 0 -19 -15 -30
-33 l-19 -34 23 5 c12 2 34 22 49 43 32 49 40 50 20 2 -8 -20 -13 -38 -11 -40
8 -8 142 -33 178 -33 20 0 39 -4 42 -9 3 -4 32 -11 64 -15 33 -4 68 -13 78
-21 10 -8 30 -15 44 -15 23 -1 23 -2 5 -10 -16 -7 -13 -9 18 -9 47 -1 49 -21
3 -21 -19 0 -38 -4 -41 -10 -3 -5 0 -10 7 -10 12 0 48 -34 48 -45 0 -3 -18 -2
-40 1 -41 7 -54 -8 -29 -33 6 -6 10 -16 8 -22 -3 -7 -36 21 -76 60 -42 42 -76
68 -83 64 -7 -4 -8 -11 -2 -18 5 -7 14 -26 20 -44 l10 -31 -46 21 c-26 11 -72
22 -102 24 -44 3 -59 9 -73 29 -18 23 -45 25 -30 1 14 -22 13 -45 -2 -51 -17
-6 -57 23 -49 36 3 4 1 8 -5 8 -5 0 -18 3 -28 6 -14 5 -15 4 -3 -4 12 -9 12
-13 -3 -30 -9 -10 -17 -29 -18 -43 -1 -19 -3 -17 -11 11 -5 19 -13 42 -17 50
-5 8 -5 24 0 35 12 31 10 45 -6 45 -20 0 -19 10 5 40 11 14 20 32 19 40 0 9
-7 5 -20 -12 -18 -25 -49 -38 -49 -22 0 13 134 144 144 141 6 -2 12 -13 14
-25z m688 13 c10 -8 15 -14 9 -14 -5 0 -19 6 -29 14 -11 8 -15 15 -10 15 6 0
19 -7 30 -15z m-1251 -14 c-15 -14 -55 -23 -55 -13 0 15 12 22 39 22 15 0 21
-4 16 -9z m-195 -91 c-14 -11 -29 -19 -35 -19 -5 0 0 7 13 16 12 8 22 23 22
31 0 13 2 14 13 3 10 -10 7 -16 -13 -31z m1337 -92 c5 -7 14 -25 20 -39 10
-23 9 -26 -5 -22 -9 2 -35 20 -57 39 l-40 34 36 0 c20 0 41 -6 46 -12z m163 2
c0 -5 7 -10 15 -10 8 0 15 -7 15 -15 0 -8 7 -15 15 -15 8 0 15 -5 15 -11 0 -6
7 -9 15 -5 8 3 15 1 15 -4 0 -6 -7 -10 -15 -10 -11 0 -14 -7 -10 -22 6 -26
-24 -72 -32 -50 -3 7 -13 21 -22 30 -9 9 -28 34 -41 54 -14 21 -28 38 -32 38
-5 0 -8 7 -8 15 0 10 11 15 35 15 19 0 35 -4 35 -10z m265 -10 c3 -6 -1 -7 -9
-4 -18 7 -21 14 -7 14 6 0 13 -4 16 -10z m-71 -17 c3 -7 12 -13 20 -13 15 0
76 -53 76 -66 0 -3 -9 -4 -20 -1 -26 7 -25 2 5 -37 16 -21 22 -39 18 -54 -7
-27 -8 -27 -45 -1 -17 12 -27 27 -24 35 3 8 -4 18 -15 24 -11 6 -18 19 -17 28
2 12 -5 18 -27 20 -35 4 -57 20 -52 36 3 6 -3 19 -11 29 -15 16 -13 17 36 16
32 -1 53 -7 56 -16z m-434 -23 c0 -5 -4 -10 -10 -10 -5 0 -10 5 -10 10 0 6 5
10 10 10 6 0 10 -4 10 -10z m628 -67 c42 -31 36 -39 -14 -18 -46 19 -66 34
-59 46 7 11 33 1 73 -28z m-1898 -53 c0 -10 -7 -21 -16 -24 -23 -9 -34 -7 -34
4 0 6 9 10 21 10 16 0 19 4 14 21 -5 15 -4 19 4 15 6 -4 11 -15 11 -26z m1699
-40 c0 -9 -4 -8 -9 5 -5 11 -9 27 -9 35 0 9 4 8 9 -5 5 -11 9 -27 9 -35z
m-1759 26 c0 -3 -4 -8 -10 -11 -5 -3 -10 -1 -10 4 0 6 5 11 10 11 6 0 10 -2
10 -4z m2230 -70 c0 -2 -7 -7 -16 -10 -8 -3 -12 -2 -9 4 6 10 25 14 25 6z
m270 -11 c7 -8 20 -15 30 -15 29 0 133 -129 124 -153 -3 -9 0 -25 6 -37 9 -18
9 -24 0 -30 -7 -4 -9 -13 -6 -19 9 -13 -9 -32 -46 -48 -23 -11 -26 -10 -21 4
5 13 1 14 -25 8 -22 -4 -32 -3 -32 5 0 7 -9 23 -20 37 -31 40 -26 64 6 30 14
-16 28 -26 31 -24 2 3 -7 17 -21 32 -14 15 -28 44 -32 64 -3 20 -10 53 -14 74
-5 26 -4 37 4 37 6 0 3 5 -6 11 -21 12 -24 39 -4 39 7 0 19 -7 26 -15z m462
-20 c-4 -26 -30 -45 -61 -45 -29 0 -115 39 -106 48 8 8 100 20 140 18 24 -1
29 -5 27 -21z m-684 -20 c-3 -3 -9 2 -12 12 -6 14 -5 15 5 6 7 -7 10 -15 7
-18z m142 -26 c0 -6 -4 -7 -10 -4 -5 3 -10 11 -10 16 0 6 5 7 10 4 6 -3 10
-11 10 -16z m-1576 -11 c8 -13 5 -21 -17 -38 -36 -29 -34 -43 13 -81 46 -37
52 -53 14 -39 -37 14 -43 13 -50 -15 -4 -17 -13 -25 -29 -25 -24 0 -49 -22
-38 -33 3 -4 1 -7 -6 -7 -16 0 -51 -42 -44 -52 2 -5 17 -8 34 -8 41 0 36 -18
-7 -26 -26 -5 -39 -3 -45 7 -7 11 -9 11 -9 -2 0 -8 -12 -26 -27 -40 l-28 -24
30 -3 c17 -2 42 -8 58 -14 23 -9 25 -13 15 -26 -9 -11 -2 -9 27 5 22 11 46 18
54 15 7 -2 17 2 22 9 6 11 11 11 21 1 6 -6 25 -12 40 -12 20 0 31 -6 37 -22
12 -31 -3 -45 -32 -29 -20 11 -29 9 -60 -9 -20 -12 -37 -19 -37 -16 0 3 -26
-6 -57 -20 -97 -44 -129 -40 -168 19 -10 16 -24 26 -32 23 -7 -3 -19 3 -25 14
-16 25 -28 26 -29 3 0 -11 -3 -13 -6 -5 -2 6 -17 12 -33 12 -28 0 -67 39 -84
85 -5 13 -10 15 -14 8 -14 -22 -72 47 -72 86 0 11 -7 27 -16 36 -19 18 -31 74
-26 120 3 23 14 37 45 57 23 14 55 30 70 33 23 6 27 4 25 -11 0 -11 0 -30 1
-44 2 -23 3 -24 12 -5 7 16 8 12 6 -17 -2 -21 1 -38 6 -38 4 0 13 -14 19 -30
5 -17 19 -35 29 -41 17 -8 19 -6 19 20 0 22 8 35 27 48 63 42 148 62 183 43
16 -9 25 -9 33 -1 8 8 7 11 -5 11 -8 0 -21 6 -27 14 -9 11 -5 19 19 40 18 14
44 29 58 32 15 3 32 7 37 9 22 8 59 -1 69 -17z m1556 -8 c13 -18 19 -38 15
-48 -5 -13 -11 -6 -26 27 -10 24 -19 45 -19 47 0 11 11 1 30 -26z m-849 -91
c2 6 10 1 18 -11 13 -21 13 -22 -1 -10 -13 10 -17 10 -20 0 -3 -8 -12 0 -21
19 -23 43 -21 55 2 20 10 -16 20 -24 22 -18z m-1431 16 c-17 -20 -100 -66
-100 -54 0 10 88 69 103 69 5 0 4 -7 -3 -15z m2784 -217 c-7 -12 -39 -10 -69
4 -29 13 -135 166 -135 195 0 11 36 -19 104 -86 58 -58 103 -108 100 -113z
m-1800 151 c14 -17 26 -39 26 -50 0 -11 5 -17 10 -14 6 3 10 2 10 -4 0 -5 -13
-15 -30 -23 -16 -7 -30 -16 -30 -20 0 -11 -63 3 -81 18 -8 8 -21 14 -28 14
-14 0 -34 48 -27 66 4 12 82 41 113 43 6 1 23 -13 37 -30z m465 -21 c20 -53
23 -70 12 -64 -6 4 -13 -12 -17 -45 -6 -47 -8 -50 -20 -34 -13 17 -14 17 -14
1 0 -25 -52 -67 -67 -54 -10 8 -13 6 -13 -5 0 -8 -3 -22 -6 -31 -4 -10 1 -18
12 -22 34 -11 104 -49 104 -56 0 -4 -27 4 -60 18 -33 13 -63 24 -67 23 -26 -4
-35 2 -24 15 10 12 5 16 -24 26 -19 6 -33 16 -30 21 4 5 -3 9 -15 9 -14 0 -24
9 -32 30 -5 17 -19 35 -29 41 -20 10 -54 67 -45 76 3 3 12 0 20 -6 12 -10 20
-10 38 0 29 15 100 18 110 4 4 -5 8 -18 8 -27 0 -9 10 -33 21 -53 31 -52 46
-33 33 44 -8 50 -7 63 6 79 10 14 21 18 35 12 12 -4 25 -2 33 7 18 18 21 17
31 -9z m907 -23 c14 -13 30 -22 35 -19 5 3 9 0 9 -5 0 -14 -47 -14 -55 -1 -3
5 -12 7 -20 4 -18 -7 -40 32 -22 39 21 9 25 8 53 -18z m-1299 -27 c-3 -8 -6
-5 -6 6 -1 11 2 17 5 13 3 -3 4 -12 1 -19z m1189 -29 c-26 -6 -43 -6 -50 1 -7
7 6 10 40 9 l49 -1 -39 -9z m-408 -21 c18 7 10 -10 -27 -50 -32 -37 -53 -35
-103 10 l-41 37 39 5 c21 3 57 2 78 -1 22 -4 46 -4 54 -1z m-1033 -86 c-3 -3
-23 -5 -45 -3 -21 1 -52 -5 -69 -13 -40 -21 -60 -21 -39 0 9 9 30 19 48 23 36
7 114 2 105 -7z m-943 -61 c-10 -17 -21 -28 -25 -25 -3 4 4 19 15 35 28 37 35
30 10 -10z m1903 11 c-3 -3 -11 0 -18 7 -9 10 -8 11 6 5 10 -3 15 -9 12 -12z
m-1938 -25 c0 -7 -6 -18 -14 -25 -14 -14 -17 -4 -7 22 7 19 21 21 21 3z m1418
4 c3 -5 0 -13 -6 -17 -7 -4 -9 -3 -5 4 3 5 0 13 -6 15 -9 4 -10 6 -1 6 6 1 14
-3 18 -8z m717 -33 c35 -48 45 -67 18 -38 -54 58 -63 70 -53 70 6 0 22 -15 35
-32z m-232 18 c0 -9 -30 -14 -35 -6 -4 6 3 10 14 10 12 0 21 -2 21 -4z m-1783
-71 c2 -49 -11 -69 -21 -31 -3 13 -9 32 -13 42 -4 12 -3 15 5 10 7 -4 15 -1
18 8 3 9 7 16 8 16 0 0 2 -20 3 -45z m-202 -7 c-6 -14 -55 -40 -55 -29 0 5 48
40 57 41 1 0 0 -6 -2 -12z m-45 -77 c0 -19 -73 -30 -85 -12 -3 6 12 12 32 14
21 2 41 4 46 5 4 1 7 -2 7 -7z m2540 -141 c-20 -13 -33 -13 -25 0 3 6 14 10
23 10 15 0 15 -2 2 -10z m-2960 -4 c0 -3 -4 -8 -10 -11 -5 -3 -10 -1 -10 4 0
6 5 11 10 11 6 0 10 -2 10 -4z m880 -15 c0 -6 -4 -13 -10 -16 -5 -3 -10 1 -10
9 0 9 5 16 10 16 6 0 10 -4 10 -9z m2377 -133 c-3 -7 -5 -2 -5 12 0 14 2 19 5
13 2 -7 2 -19 0 -25z m-2437 -318 c-8 -5 -25 -10 -38 -10 -38 0 -132 -56 -132
-78 0 -6 17 -25 38 -42 33 -29 34 -30 7 -16 -16 9 -43 26 -58 39 -26 22 -27
24 -10 39 44 39 130 74 188 77 16 1 17 -1 5 -9z m107 -27 c-10 -22 -13 -24
-15 -9 -2 10 2 22 10 27 19 12 19 12 5 -18z m-88 -29 c17 -4 31 -10 31 -15 0
-10 -61 0 -74 12 -12 11 -1 11 43 3z m151 -4 c0 -5 -4 -10 -10 -10 -5 0 -10 5
-10 10 0 6 5 10 10 10 6 0 10 -4 10 -10z m-73 -42 c-3 -8 -6 -5 -6 6 -1 11 2
17 5 13 3 -3 4 -12 1 -19z m-947 -19 c0 -11 -4 -17 -10 -14 -5 3 -10 15 -10
26 0 11 5 17 10 14 6 -3 10 -15 10 -26z m885 11 c-3 -5 -24 -10 -46 -10 -24 0
-38 4 -34 10 3 6 24 10 46 10 24 0 38 -4 34 -10z m18 -105 c-3 -8 -8 -15 -12
-15 -6 0 -24 -39 -36 -79 -4 -13 -14 -40 -23 -60 -8 -20 -16 -47 -18 -61 -3
-32 -24 -128 -34 -160 -7 -21 -9 -19 -9 17 -2 69 76 327 111 370 13 16 29 7
21 -12z m61 10 c10 -7 15 -18 12 -23 -4 -6 3 -8 15 -5 20 6 21 5 5 -26 -9 -17
-21 -31 -26 -31 -6 0 -10 -8 -10 -17 0 -17 -36 -135 -66 -213 -10 -27 -13 -30
-13 -12 -1 21 -2 21 -20 5 -38 -35 -51 -44 -52 -36 -3 20 4 52 22 106 10 31
19 69 19 85 0 26 49 142 72 169 13 16 18 16 42 -2z m213 -19 c0 -1 -23 -48
-53 -105 -30 -58 -54 -97 -54 -87 0 9 -4 14 -10 11 -5 -3 -10 -14 -10 -23 0
-9 -7 -30 -15 -46 -8 -15 -12 -33 -9 -38 4 -6 13 4 21 22 20 49 26 30 12 -39
-10 -47 -17 -61 -31 -61 -11 0 -20 -10 -24 -26 -4 -17 -9 -22 -14 -14 -4 7
-13 9 -19 6 -6 -4 -11 0 -12 11 0 10 -2 32 -5 50 -4 32 33 151 81 259 27 62
74 97 115 87 14 -3 26 -6 27 -7z m-127 -26 c0 -5 -4 -10 -10 -10 -5 0 -10 -9
-10 -20 0 -11 -4 -20 -10 -20 -5 0 -10 -11 -10 -25 0 -14 -4 -25 -10 -25 -5 0
-13 -12 -16 -27 -4 -16 -10 -32 -14 -38 -4 -5 -12 -32 -18 -60 -6 -27 -18 -66
-26 -85 l-15 -35 -1 29 c0 38 64 226 96 282 24 41 44 57 44 34z m-1013 -22
c-3 -8 -6 -5 -6 6 -1 11 2 17 5 13 3 -3 4 -12 1 -19z m638 -278 c4 -6 -7 -10
-27 -10 -34 0 -123 -45 -147 -74 -17 -20 -41 -21 -41 -2 0 16 155 95 187 96
12 0 25 -4 28 -10z m-614 -110 l-8 -95 -2 87 c0 47 2 94 6 104 12 31 13 2 4
-96z m629 54 c0 -14 -4 -23 -10 -19 -5 3 -10 15 -10 26 0 10 5 19 10 19 6 0
10 -12 10 -26z m-40 1 c0 -8 -4 -15 -10 -15 -5 0 -10 7 -10 15 0 8 5 15 10 15
6 0 10 -7 10 -15z m64 -54 c5 -1 6 -4 2 -8 -9 -9 -76 -11 -76 -2 0 14 10 16
74 10z m146 4 c0 -2 -16 -12 -36 -21 -20 -10 -39 -26 -42 -37 -5 -18 -6 -18
-18 4 -17 30 -18 47 -2 31 8 -8 17 -6 36 8 22 18 62 27 62 15z m300 -24 c0 -5
-7 -11 -14 -14 -10 -4 -13 -1 -9 9 6 15 23 19 23 5z m-170 -17 c0 -8 -5 -12
-10 -9 -6 4 -8 11 -5 16 9 14 15 11 15 -7z m-132 -21 c-5 -25 -28 -28 -28 -4
0 12 6 21 16 21 9 0 14 -7 12 -17z m-208 -3 c0 -5 -4 -10 -10 -10 -5 0 -10 5
-10 10 0 6 5 10 10 10 6 0 10 -4 10 -10z m47 -7 c-9 -9 -19 -14 -23 -11 -10
10 6 28 24 28 15 0 15 -1 -1 -17z m465 -15 c-7 -7 -12 -8 -12 -2 0 14 12 26
19 19 2 -3 -1 -11 -7 -17z m-542 -7 c0 -6 -4 -13 -10 -16 -5 -3 -10 1 -10 9 0
9 5 16 10 16 6 0 10 -4 10 -9z m446 -3 c12 1 28 -6 35 -15 12 -14 12 -16 0 -8
-8 4 -26 8 -42 7 -15 0 -34 7 -41 16 -11 14 -11 15 7 8 11 -5 30 -8 41 -8z
m-490 -36 c-4 -3 -14 2 -24 12 -16 18 -16 18 6 6 13 -6 21 -14 18 -18z m-509
-187 l0 -60 -7 70 c-4 39 -7 99 -7 135 l0 65 7 -75 c4 -41 7 -102 7 -135z
m993 165 c8 -5 12 -11 9 -14 -3 -3 -14 1 -25 9 -21 16 -8 20 16 5z m1544 -87
c22 -6 25 -8 85 -60 42 -37 71 -84 71 -119 0 -10 -6 -14 -14 -11 -7 3 -18 1
-24 -5 -6 -6 -16 -6 -28 0 -11 5 -46 15 -78 21 -67 12 -169 68 -174 95 -6 32
7 63 30 71 13 5 32 11 43 15 19 7 45 5 89 -7z m-1863 -26 c-8 -8 -11 -7 -11 4
0 9 3 19 7 23 4 4 9 2 11 -4 3 -7 -1 -17 -7 -23z m222 -3 c-12 -90 -16 -112
-25 -136 -5 -15 -21 -34 -35 -43 l-25 -17 4 49 c5 44 32 130 52 161 11 18 31
9 29 -14z m-153 -58 c1 -17 2 -50 2 -73 1 -25 -4 -48 -11 -55 -11 -11 -13 -9
-8 7 2 11 8 28 12 38 4 10 3 17 -4 17 -5 0 -15 -18 -21 -40 -6 -21 -16 -43
-23 -47 -7 -4 -21 -19 -31 -33 -18 -25 -18 -25 -12 31 5 50 22 109 56 194 11
29 12 29 26 11 7 -11 14 -33 14 -50z m-70 25 c0 -6 -4 -13 -10 -16 -5 -3 -10
1 -10 9 0 9 5 16 10 16 6 0 10 -4 10 -9z m260 -21 c0 -5 -4 -10 -10 -10 -5 0
-10 5 -10 10 0 6 5 10 10 10 6 0 10 -4 10 -10z m-160 -10 c0 -5 -5 -10 -11
-10 -5 0 -7 5 -4 10 3 6 8 10 11 10 2 0 4 -4 4 -10z m20 -77 c-7 -43 -17 -82
-22 -88 -6 -6 -7 -5 -4 5 2 8 7 39 11 69 7 65 16 104 22 97 3 -2 -1 -40 -7
-83z m140 57 c0 -5 -4 -10 -10 -10 -5 0 -10 5 -10 10 0 6 5 10 10 10 6 0 10
-4 10 -10z m-299 -73 c-30 -82 -31 -84 -25 -42 7 54 26 105 36 99 4 -3 -1 -28
-11 -57z m276 31 c-3 -8 -6 -5 -6 6 -1 11 2 17 5 13 3 -3 4 -12 1 -19z m3 -64
c0 -25 -4 -43 -8 -40 -7 4 -4 86 4 86 2 0 4 -21 4 -46z m-196 -111 c-2 -54
-10 -123 -18 -153 l-15 -55 3 48 c2 26 0 47 -5 47 -4 0 -18 -22 -31 -50 -13
-27 -25 -50 -28 -50 -10 0 -10 80 0 125 15 68 47 95 69 58 9 -16 10 -16 11 5
0 12 -4 22 -9 22 -7 0 18 99 25 100 1 0 0 -44 -2 -97z m51 -27 c-4 -39 -11
-63 -17 -60 -10 6 -2 109 9 127 12 19 14 -5 8 -67z m129 27 c-3 -26 -9 -54
-14 -62 -9 -16 -4 57 6 92 10 32 14 17 8 -30z m-296 -60 c-5 -21 -13 -60 -17
-86 -4 -27 -14 -53 -22 -58 -20 -12 -23 5 -6 38 8 15 21 54 28 86 8 31 17 57
20 57 4 0 2 -17 -3 -37z m249 -30 c-5 -56 -31 -150 -46 -166 -4 -4 -15 -5 -24
-1 -19 7 -24 68 -7 79 6 3 10 15 10 27 0 11 8 32 19 46 10 15 22 37 25 50 15
45 29 23 23 -35z m-1670 5 c-3 -8 -6 -5 -6 6 -1 11 2 17 5 13 3 -3 4 -12 1
-19z m1583 -47 c0 -6 -4 -13 -10 -16 -5 -3 -10 1 -10 9 0 9 5 16 10 16 6 0 10
-4 10 -9z m-23 -63 c-3 -8 -6 -5 -6 6 -1 11 2 17 5 13 3 -3 4 -12 1 -19z m-37
-53 c8 -9 9 -15 2 -15 -6 0 -14 5 -18 11 -4 7 -21 9 -43 5 -25 -4 -31 -2 -21
4 23 15 66 12 80 -5z m-425 -19 c-28 -13 -65 -40 -82 -62 -18 -22 -32 -32 -32
-24 0 35 99 110 144 109 12 0 -1 -10 -30 -23z m375 -41 c0 -18 -5 -25 -20 -25
-20 0 -28 28 -13 43 15 16 33 6 33 -18z m-125 -20 c0 -5 -15 -11 -32 -13 -18
-2 -33 -7 -33 -11 0 -4 14 -6 30 -3 40 6 39 -13 -1 -27 -58 -20 -115 -6 -72
17 14 8 15 13 5 24 -6 8 -9 18 -5 22 11 10 108 2 108 -9z m295 -35 c0 -5 -2
-10 -4 -10 -3 0 -8 5 -11 10 -3 6 -1 10 4 10 6 0 11 -4 11 -10z m-234 -88 c-8
-7 -25 8 -37 31 -11 21 -10 21 15 -2 14 -14 24 -26 22 -29z m-160 -44 c-9 -13
-23 -35 -31 -50 -22 -40 -106 -158 -112 -158 -12 0 82 155 115 190 42 44 51
50 28 18z m88 -22 c-1 -24 3 -36 12 -36 20 0 17 -10 -10 -31 -17 -13 -22 -25
-18 -41 4 -17 2 -20 -11 -15 -9 3 -19 2 -22 -3 -4 -6 -2 -10 4 -10 7 0 7 -8
-1 -25 -6 -14 -15 -25 -20 -25 -5 0 -14 -13 -19 -29 -6 -16 -19 -31 -31 -34
-15 -4 -18 -11 -13 -26 4 -14 0 -24 -14 -33 -12 -7 -21 -18 -21 -25 0 -6 -5
-15 -11 -18 -7 -5 -8 5 -4 32 6 37 6 37 -11 18 -16 -20 -16 -19 -12 8 4 18 1
27 -8 27 -17 0 -17 1 -3 37 6 15 10 30 10 33 1 22 113 170 154 202 14 11 23
23 20 28 -3 4 3 7 12 5 14 -2 18 -11 17 -39z m255 6 c-11 -2 -15 -10 -12 -23
6 -22 23 -26 23 -4 0 21 17 19 29 -4 15 -26 26 -160 12 -141 -9 12 -11 10 -11
-12 0 -17 -8 -31 -20 -38 -18 -9 -20 -8 -20 16 0 14 -9 38 -20 54 -19 27 -38
139 -26 158 3 5 18 7 33 4 17 -4 22 -7 12 -10z m-1053 -137 c-19 -55 -37 -118
-41 -140 -4 -22 -11 -44 -15 -50 -15 -20 -22 -72 -21 -155 0 -51 -3 -80 -8
-71 -5 7 -11 9 -14 5 -6 -11 9 -172 22 -234 6 -25 10 -58 10 -75 -1 -71 18
-272 28 -290 5 -11 13 -33 17 -49 6 -26 6 -28 -9 -16 -9 7 -14 19 -11 27 3 8
2 12 -2 9 -5 -3 -14 18 -22 47 -7 29 -19 65 -27 81 -12 22 -14 48 -8 112 4 55
3 89 -5 103 -16 31 -26 19 -34 -41 -4 -29 -14 -88 -23 -131 l-15 -78 47 -77
c41 -65 39 -83 -2 -33 -8 9 -13 11 -13 3 0 -7 -4 -12 -10 -12 -5 0 -10 15 -10
33 0 17 -9 47 -21 66 -18 29 -19 40 -10 80 16 70 39 234 51 354 17 173 74 401
137 554 21 51 39 89 41 85 1 -4 -13 -53 -32 -107z m948 36 c10 -31 17 -107 20
-238 3 -105 8 -204 11 -220 4 -23 3 -22 -8 7 l-14 34 -12 -34 c-7 -19 -15 -29
-18 -22 -8 20 -29 14 -43 -13 -16 -31 -31 -32 -49 -3 l-13 22 -12 -30 -12 -29
-12 48 c-7 26 -18 47 -25 47 -7 0 -19 19 -28 43 -8 23 -20 41 -27 39 -17 -3
-15 20 8 73 11 26 20 63 20 84 0 43 52 135 121 217 40 47 46 50 61 37 9 -9 24
-36 32 -62z m41 59 c3 -5 7 -34 7 -62 0 -29 5 -58 9 -64 5 -6 5 -30 0 -55 -5
-24 -10 -35 -11 -24 -4 29 -6 37 -13 70 -21 95 -16 175 8 135z m155 -43 c0
-18 -2 -19 -10 -7 -13 20 -13 43 0 35 6 -3 10 -16 10 -28z m10 -63 c0 -8 -5
-12 -10 -9 -6 4 -8 11 -5 16 9 14 15 11 15 -7z m-1 -71 c0 -25 -1 -26 -9 -8
-12 27 -12 35 0 35 6 0 10 -12 9 -27z m-619 -57 c-16 -37 -30 -72 -30 -78 0
-6 -3 -8 -6 -5 -4 4 -1 21 6 39 29 73 52 120 56 115 3 -2 -9 -34 -26 -71z
m3875 34 c3 -5 2 -10 -4 -10 -5 0 -13 5 -16 10 -3 6 -2 10 4 10 5 0 13 -4 16
-10z m-30 -10 c3 -5 2 -10 -4 -10 -5 0 -13 5 -16 10 -3 6 -2 10 4 10 5 0 13
-4 16 -10z m-3378 -42 c-3 -8 -6 -5 -6 6 -1 11 2 17 5 13 3 -3 4 -12 1 -19z
m2653 -14 c0 -11 -59 -64 -70 -64 -5 0 -10 5 -10 10 0 6 -1 13 -2 16 -3 7 61
44 74 44 5 0 8 -3 8 -6z m740 -44 c0 -5 -5 -10 -11 -10 -5 0 -7 5 -4 10 3 6 8
10 11 10 2 0 4 -4 4 -10z m-870 -45 c-17 -25 -37 -45 -45 -45 -8 0 -16 -6 -17
-12 0 -7 -2 -18 -2 -24 -2 -20 -67 -114 -75 -109 -8 4 -41 -28 -75 -75 l-18
-25 7 25 c7 24 81 135 144 215 26 32 95 93 109 95 2 0 -11 -20 -28 -45z m815
25 c-3 -5 -10 -10 -16 -10 -5 0 -9 5 -9 10 0 6 7 10 16 10 8 0 12 -4 9 -10z
m-3810 -74 c-5 -48 -3 -70 8 -88 17 -27 12 -111 -7 -105 -24 8 -29 54 -16 155
7 56 15 102 17 102 3 0 2 -29 -2 -64z m-177 -180 c-83 -63 -120 -110 -111
-144 6 -24 5 -26 -10 -13 -27 22 -20 44 34 107 60 69 67 74 87 66 13 -4 13 -7
0 -16z m857 -10 c-16 -23 -45 -42 -45 -29 0 10 42 53 52 53 5 0 1 -11 -7 -24z
m-545 4 c0 -5 -11 -10 -24 -10 -41 0 -66 -43 -66 -112 0 -86 40 -149 84 -132
9 3 16 1 16 -4 0 -16 -37 -24 -57 -13 -59 31 -87 206 -40 248 33 31 87 45 87
23z m-260 -40 c0 -11 -4 -20 -10 -20 -5 0 -10 9 -10 20 0 11 5 20 10 20 6 0
10 -9 10 -20z m2910 -38 c0 -9 6 -23 14 -31 7 -9 16 -38 20 -66 l6 -50 -16 35
c-9 19 -20 44 -26 54 -21 40 -26 73 -12 73 8 0 14 -7 14 -15z m-2840 -12 c12
-8 11 -10 -7 -10 -12 0 -23 -5 -25 -12 -5 -15 -28 -1 -28 18 0 16 37 19 60 4z
m621 -6 c9 -11 1 -13 -45 -9 -30 2 -58 0 -61 -5 -3 -4 -14 -6 -25 -3 -11 3
-26 1 -33 -4 -27 -22 -47 -23 -47 -3 0 25 45 38 133 37 43 0 71 -5 78 -13z
m-610 -61 c8 -8 5 -14 -11 -23 -17 -9 -26 -8 -46 5 -13 8 -24 20 -24 25 0 12
68 6 81 -7z m633 -32 c4 -5 -3 -7 -14 -4 -23 6 -26 13 -6 13 8 0 17 -4 20 -9z
m-139 -30 c-6 -5 -25 10 -25 20 0 5 6 4 14 -3 8 -7 12 -15 11 -17z m2378 -137
c-3 -71 -10 -104 -23 -104 -12 0 -11 88 3 170 10 61 11 63 17 29 4 -19 5 -62
3 -95z m-4021 -110 c-13 -9 -26 -13 -30 -9 -8 8 17 25 38 25 9 0 6 -6 -8 -16z
m4178 -21 c-1 -5 -32 -27 -70 -51 -39 -24 -70 -48 -70 -53 0 -5 -7 -9 -16 -9
-8 0 -13 -4 -9 -9 3 -5 -7 -19 -21 -30 -18 -14 -25 -27 -21 -40 7 -30 -21 -14
-39 21 -15 28 -14 33 7 78 23 48 23 48 40 26 l18 -21 34 33 c24 24 36 30 40
20 3 -10 10 -8 28 8 33 29 80 45 79 27z m1100 -108 c7 -8 8 -15 2 -15 -5 0
-15 7 -22 15 -7 8 -8 15 -2 15 5 0 15 -7 22 -15z m-4752 -20 c-3 -3 -9 2 -12
12 -6 14 -5 15 5 6 7 -7 10 -15 7 -18z m-678 -271 c0 -3 -12 -20 -26 -38 -25
-29 -26 -29 -19 -6 4 14 12 31 17 38 11 12 28 16 28 6z m3483 -233 c132 -53
182 -80 224 -120 43 -41 63 -84 44 -95 -5 -4 -8 -12 -6 -19 2 -7 6 -27 9 -45
5 -29 3 -32 -17 -30 -12 2 -29 8 -37 13 -8 5 -30 8 -48 6 -49 -4 -134 43 -203
112 -64 65 -86 101 -95 158 -5 31 -3 38 12 42 35 9 46 7 117 -22z m-3615 -33
c-39 -58 -268 -266 -268 -244 0 4 26 30 57 59 32 28 93 89 137 135 75 78 107
100 74 50z m5328 5 c-10 -10 -19 5 -10 18 6 11 8 11 12 0 2 -7 1 -15 -2 -18z
m-4682 -65 c-4 -7 -16 -25 -26 -40 -19 -28 -24 -58 -8 -58 11 0 50 -40 50 -52
0 -5 -4 -6 -10 -3 -5 3 -10 -1 -10 -10 0 -9 18 -33 40 -52 22 -20 40 -42 40
-50 0 -18 10 -16 27 5 13 15 14 14 9 -16 -3 -19 -1 -43 6 -55 10 -20 10 -21
-6 -8 -9 8 -18 12 -20 10 -10 -12 -57 -231 -52 -244 3 -8 1 -15 -4 -15 -21 0
-8 -46 21 -75 23 -22 29 -35 24 -53 -3 -13 -1 -30 6 -38 9 -11 8 -14 -2 -14
-8 0 -6 -6 7 -16 18 -15 18 -15 0 -10 -15 5 -17 2 -12 -19 7 -26 -3 -32 -21
-14 -6 6 -17 9 -24 7 -15 -5 47 -66 76 -74 24 -7 192 -91 220 -110 34 -24 7
-15 -63 20 -37 18 -78 37 -92 41 -14 4 -50 20 -81 35 l-55 27 -3 -131 c-2
-143 16 -263 50 -326 19 -34 19 -35 12 -5 -3 17 -12 48 -20 69 -15 44 -17 220
-2 264 8 27 8 27 7 2 0 -14 4 -36 9 -50 7 -15 7 -29 2 -34 -5 -6 0 -20 14 -34
21 -23 21 -24 3 -37 -17 -13 -17 -16 -1 -82 18 -75 52 -134 72 -126 7 3 13 0
13 -6 0 -6 -7 -11 -15 -11 -27 0 -16 -28 25 -61 25 -21 38 -39 35 -48 -3 -8 0
-18 7 -23 10 -6 10 -10 -2 -19 -13 -9 -13 -10 0 -6 25 7 49 -11 43 -33 -3 -11
-6 -20 -8 -20 -13 0 -72 26 -78 34 -5 6 -6 -1 -3 -17 4 -15 22 -49 41 -76 19
-26 44 -73 56 -104 12 -31 25 -57 30 -57 7 0 65 79 154 209 28 41 55 74 60 73
6 0 14 9 19 21 9 21 10 21 14 -6 3 -27 -17 -64 -62 -111 -11 -12 -43 -49 -71
-81 -27 -32 -68 -77 -90 -100 -148 -151 -272 -316 -305 -408 -6 -18 -14 -25
-22 -21 -7 5 -9 2 -6 -8 4 -8 2 -21 -3 -29 -6 -10 -9 -10 -9 -1 -1 60 -63 -80
-107 -237 -19 -70 -72 -193 -90 -208 -25 -20 -371 8 -618 51 -77 13 -223 30
-325 36 -216 14 -275 29 -434 105 -76 37 -128 56 -166 60 -38 4 -49 2 -35 -4
17 -8 18 -10 3 -10 -10 -1 -18 -6 -18 -12 0 -6 8 -8 19 -4 11 3 22 1 25 -4 11
-17 -30 -22 -115 -16 -77 5 -144 28 -133 46 5 8 -29 19 -131 40 -33 7 -63 14
-67 15 -5 1 -14 2 -22 3 -8 0 -17 9 -20 19 -3 9 -19 23 -35 30 -27 12 -47 39
-37 49 9 10 68 -30 78 -52 6 -14 14 -25 18 -25 23 0 77 114 59 125 -11 7 10
65 23 62 6 -1 30 23 54 53 24 30 63 76 86 102 24 27 47 57 52 68 5 11 15 20
23 20 7 0 13 9 13 19 0 17 225 250 249 259 4 1 35 33 67 70 l59 67 -40 -25
-40 -24 38 42 c20 23 37 52 37 65 1 22 1 22 16 2 8 -11 28 -20 44 -21 29 -2
29 -1 15 27 -20 38 -20 55 0 39 12 -10 16 -9 21 4 3 9 11 16 16 16 6 0 8 -7 4
-15 -3 -8 -4 -15 -1 -15 2 0 24 42 49 93 25 50 65 117 88 148 24 30 59 76 78
102 19 25 40 46 47 47 16 0 63 47 63 62 0 20 73 80 81 67 4 -7 11 2 18 23 14
42 191 215 247 240 13 6 24 17 24 25 0 7 5 13 10 13 6 0 10 6 10 13 0 8 11 24
25 37 14 13 25 32 25 42 0 11 4 17 9 13 6 -3 15 5 22 17 7 13 18 27 26 31 7 5
34 51 59 104 48 102 154 271 199 315 15 15 37 28 49 28 11 1 70 3 129 4 95 3
111 6 130 25 24 24 32 27 21 9z m46 -110 c0 -6 -7 -5 -15 2 -8 7 -15 17 -15
22 0 6 7 5 15 -2 8 -7 15 -17 15 -22z m-945 -106 c18 -11 16 -11 -10 -6 -37 8
-39 10 -30 24 5 7 10 8 14 3 3 -5 15 -15 26 -21z m-60 -72 c3 -6 -1 -7 -9 -4
-18 7 -21 14 -7 14 6 0 13 -4 16 -10z m1622 -392 c-3 -8 -6 -5 -6 6 -1 11 2
17 5 13 3 -3 4 -12 1 -19z m-87 -395 c0 -7 -4 -13 -10 -13 -5 0 -10 8 -10 19
0 10 -7 35 -15 54 -8 20 -15 40 -14 44 1 12 49 -90 49 -104z m1522 -7 c17 -31
-7 -10 -53 47 l-43 52 43 -40 c23 -22 47 -48 53 -59z m-168 24 l46 0 -4 -45
c-4 -36 -1 -45 13 -50 10 -3 28 -16 41 -30 l22 -24 -23 6 -24 6 24 -27 c43
-46 0 -29 -46 19 -23 25 -45 45 -48 45 -9 0 -72 65 -83 87 -7 12 -12 32 -12
44 0 21 1 21 25 -5 19 -21 33 -26 69 -26z m-1689 5 l18 -30 -21 19 c-12 11
-22 26 -22 34 0 17 -1 18 25 -23z m1564 -41 c5 3 58 -42 119 -101 60 -60 137
-133 171 -164 64 -59 71 -73 46 -83 -23 -8 -80 32 -157 109 -38 37 -68 63 -68
58 0 -5 9 -18 21 -29 37 -34 59 -97 75 -214 16 -125 18 -106 -37 -337 -10 -45
-19 -92 -19 -105 0 -14 -15 7 -40 56 -21 43 -49 89 -61 102 -12 13 -21 26 -18
28 2 2 24 1 49 -4 25 -5 47 -6 49 -4 4 4 -53 59 -153 148 -73 64 -94 121 -72
193 8 26 20 89 27 138 6 50 15 94 20 99 4 4 5 24 2 43 -4 21 -1 38 6 42 7 5 3
18 -14 41 -36 49 -31 59 10 16 19 -21 39 -35 44 -32z m-1217 -61 c-5 -15 -20
-61 -33 -100 -13 -40 -27 -73 -32 -73 -5 0 -7 6 -5 13 3 6 20 54 38 105 18 51
35 90 38 88 2 -3 0 -18 -6 -33z m-2243 -24 c-13 -10 -28 -19 -32 -19 -4 0 -3
-9 3 -20 10 -18 9 -20 -7 -11 -10 5 -26 12 -35 15 -10 3 -18 10 -18 16 0 5 8
10 18 10 9 0 30 9 46 19 37 24 58 15 25 -10z m1826 14 c-4 -10 -10 -29 -12
-43 -10 -60 -14 -70 -23 -65 -16 10 -12 78 6 103 18 26 39 30 29 5z m-1757
-115 c7 -7 12 -19 12 -27 0 -11 -4 -10 -20 4 -21 19 -26 35 -12 35 4 0 13 -5
20 -12z m-278 -68 c0 -5 -2 -10 -4 -10 -3 0 -8 5 -11 10 -3 6 -1 10 4 10 6 0
11 -4 11 -10z m311 -77 c13 -16 12 -17 -3 -4 -10 7 -18 15 -18 17 0 8 8 3 21
-13z m2016 -160 c-9 -9 -20 -13 -24 -9 -4 4 -1 11 7 16 25 16 35 11 17 -7z
m-90 1 c-3 -3 -12 -4 -19 -1 -8 3 -5 6 6 6 11 1 17 -2 13 -5z m38 -4 c-3 -5
-10 -10 -16 -10 -5 0 -9 5 -9 10 0 6 7 10 16 10 8 0 12 -4 9 -10z m1459 -274
c4 -35 -1 -33 -19 10 -19 46 -19 52 1 33 8 -9 17 -28 18 -43z m-4254 -187
c-48 -42 -80 -55 -107 -45 -14 6 -14 8 3 21 10 8 28 15 40 15 11 0 38 13 60
29 55 41 58 27 4 -20z m3078 -4 c38 -18 52 -29 52 -44 0 -12 4 -21 10 -21 5 0
14 -8 19 -18 14 -26 -31 -28 -54 -2 -10 11 -23 20 -29 20 -17 0 -96 74 -96 89
0 15 22 9 98 -24z m1552 14 c17 -13 18 -17 5 -10 -33 17 -51 31 -40 31 6 0 21
-10 35 -21z m-120 -34 c0 -8 -7 -15 -15 -15 -26 0 -18 20 13 29 1 1 2 -6 2
-14z m185 -5 c3 -5 2 -10 -4 -10 -5 0 -13 5 -16 10 -3 6 -2 10 4 10 5 0 13 -4
16 -10z m-50 -10 c3 -6 -1 -7 -9 -4 -18 7 -21 14 -7 14 6 0 13 -4 16 -10z
m-4675 -40 c0 -5 -2 -10 -4 -10 -3 0 -8 5 -11 10 -3 6 -1 10 4 10 6 0 11 -4
11 -10z m245 -67 c-4 -10 -14 -37 -22 -61 -8 -23 -19 -40 -24 -37 -9 6 -4 23
18 65 7 14 13 31 13 38 0 6 5 12 11 12 7 0 8 -7 4 -17z m60 7 c3 -5 1 -10 -4
-10 -6 0 -11 5 -11 10 0 6 2 10 4 10 3 0 8 -4 11 -10z m4385 -156 c0 -8 -4
-12 -10 -9 -5 3 -10 10 -10 16 0 5 5 9 10 9 6 0 10 -7 10 -16z m-1052 -176
c-3 -7 1 -19 9 -26 7 -7 13 -25 13 -38 0 -19 -8 -29 -36 -40 -41 -17 -54 -12
-32 13 8 10 20 37 27 61 6 23 14 42 17 42 3 0 4 -6 2 -12z m2152 -98 c0 -5 -2
-10 -4 -10 -3 0 -8 5 -11 10 -3 6 -1 10 4 10 6 0 11 -4 11 -10z m-2402 -45
l23 -24 -28 -15 c-27 -14 -29 -13 -45 14 -12 20 -13 31 -5 39 16 16 30 13 55
-14z m593 -96 c19 -7 36 -14 38 -16 5 -4 -31 -32 -41 -33 -11 0 -48 38 -48 50
0 13 9 13 51 -1z m-166 -10 c5 -8 1 -9 -13 -5 -25 8 -112 -31 -112 -50 0 -19
-19 -18 -42 3 -11 10 -29 18 -41 18 -30 0 -35 32 -5 37 64 10 207 8 213 -3z
m21 -34 c9 -8 11 -15 6 -15 -5 0 -15 7 -22 15 -7 8 -9 15 -6 15 4 0 14 -7 22
-15z"/>
<path d="M5487 8094 c-3 -4 1 -13 9 -21 11 -12 18 -12 29 -3 8 7 12 16 9 21
-6 10 -38 12 -47 3z"/>
<path d="M5341 7865 c0 -11 4 -27 10 -35 9 -12 10 -11 5 5 l-6 20 16 -20 c15
-18 16 -18 10 -2 -3 10 -6 23 -6 28 0 6 -4 8 -9 5 -5 -4 -12 0 -14 6 -3 7 -6
4 -6 -7z"/>
<path d="M5310 7829 c0 -5 5 -7 10 -4 6 3 10 8 10 11 0 2 -4 4 -10 4 -5 0 -10
-5 -10 -11z"/>
<path d="M7540 7666 c0 -2 8 -10 18 -17 15 -13 16 -12 3 4 -13 16 -21 21 -21
13z"/>
<path d="M7539 7633 c19 -36 14 -55 -11 -47 -20 6 -18 2 12 -34 49 -56 55 -56
57 -4 2 45 -13 90 -24 78 -4 -3 -15 2 -26 11 -19 17 -20 17 -8 -4z"/>
<path d="M7626 7580 c3 -14 10 -29 15 -34 14 -16 10 6 -7 34 l-15 25 7 -25z"/>
<path d="M5518 7300 c9 -16 21 -30 25 -30 5 0 0 14 -10 30 -9 17 -21 30 -25
30 -4 0 1 -13 10 -30z"/>
<path d="M5215 4633 c4 -10 10 -28 12 -41 3 -12 9 -24 13 -27 4 -3 4 12 -1 33
-5 20 -9 40 -9 45 0 4 -5 7 -11 7 -7 0 -8 -7 -4 -17z"/>
<path d="M5795 1740 c3 -5 8 -10 11 -10 2 0 4 5 4 10 0 6 -5 10 -11 10 -5 0
-7 -4 -4 -10z"/>
<path d="M8041 8794 c0 -11 3 -14 6 -6 3 7 2 16 -1 19 -3 4 -6 -2 -5 -13z"/>
<path d="M5785 8381 c-6 -5 -19 -11 -30 -14 -11 -3 -5 -5 14 -4 19 1 36 8 39
15 4 14 -10 16 -23 3z"/>
<path d="M4627 7994 c-3 -5 3 -15 14 -22 16 -10 19 -9 19 4 0 8 -4 13 -9 10
-5 -4 -11 -1 -13 6 -3 7 -7 8 -11 2z"/>
<path d="M7871 7954 c0 -11 3 -14 6 -6 3 7 2 16 -1 19 -3 4 -6 -2 -5 -13z"/>
<path d="M7152 7843 c-17 -7 4 -33 27 -33 13 1 13 2 -3 11 -15 9 -16 13 -5 20
15 9 2 11 -19 2z"/>
<path d="M7220 7823 c1 -4 16 -18 35 -30 18 -11 32 -16 29 -9 -6 15 -64 51
-64 39z"/>
<path d="M5020 7660 c0 -9 25 -20 46 -20 9 0 13 4 10 9 -7 11 -56 21 -56 11z"/>
<path d="M8363 4433 c9 -2 23 -2 30 0 6 3 -1 5 -18 5 -16 0 -22 -2 -12 -5z"/>
<path d="M3220 3870 c0 -11 -6 -20 -12 -20 -7 0 0 -7 16 -15 16 -9 36 -13 44
-10 8 3 21 -3 28 -12 13 -17 13 -17 14 0 0 9 -4 17 -10 17 -5 0 -10 7 -10 16
0 8 -4 13 -10 9 -5 -3 -18 3 -30 15 -25 25 -30 25 -30 0z"/>
<path d="M3023 3780 c2 -8 12 -16 23 -17 13 -2 15 -1 4 4 -8 3 -19 11 -23 17
-6 7 -7 6 -4 -4z"/>
<path d="M7890 3700 c-18 -12 -2 -12 25 0 13 6 15 9 5 9 -8 0 -22 -4 -30 -9z"/>
<path d="M9310 3346 c0 -2 8 -10 18 -17 15 -13 16 -12 3 4 -13 16 -21 21 -21
13z"/>
<path d="M7471 1334 c0 -11 3 -14 6 -6 3 7 2 16 -1 19 -3 4 -6 -2 -5 -13z"/>
<path d="M722 535 c3 -17 -2 -19 -37 -16 -52 4 -46 4 -77 2 -19 -1 -26 -5 -22
-15 6 -15 -9 -19 -104 -30 -51 -5 -64 -14 -39 -27 10 -6 17 -22 17 -39 0 -19
7 -33 20 -40 22 -12 27 -36 8 -42 -6 -2 -11 -18 -10 -35 0 -23 -5 -32 -19 -36
-19 -5 -19 -7 -5 -35 8 -16 22 -32 31 -35 8 -4 15 -15 15 -25 0 -28 24 -44 62
-41 38 3 88 -9 88 -22 0 -5 12 -15 28 -23 33 -17 49 -10 113 51 24 23 65 61
90 85 89 85 160 171 156 190 -3 10 -2 16 2 13 5 -2 8 9 7 25 -1 20 -8 32 -23
39 -15 7 -21 17 -18 30 3 17 -4 23 -38 32 -38 10 -63 9 -180 -8 -23 -3 -43 0
-53 8 -13 11 -15 10 -12 -6z"/>
<path d="M4500 542 c0 -10 21 -32 32 -32 16 0 8 19 -12 30 -11 6 -20 7 -20 2z"/>
<path d="M4578 483 c4 -10 22 -46 40 -80 17 -34 32 -65 32 -67 0 -3 -13 -3
-29 0 -27 6 -29 4 -24 -16 8 -29 30 -36 51 -17 9 8 34 18 55 22 20 4 37 11 37
16 0 5 7 9 16 9 11 0 14 5 10 16 -3 9 -6 25 -6 37 0 20 -1 20 -25 -3 -25 -23
-26 -23 -39 -4 -33 46 -66 78 -66 64 0 -10 -8 -6 -25 13 -30 31 -37 34 -27 10z"/>
<path d="M7351 414 c0 -11 3 -14 6 -6 3 7 2 16 -1 19 -3 4 -6 -2 -5 -13z"/>
<path d="M4550 381 c0 -6 4 -13 10 -16 6 -3 7 1 4 9 -7 18 -14 21 -14 7z"/>
<path d="M1047 341 c-21 -16 -52 -43 -70 -59 -18 -17 -63 -60 -102 -96 -52
-49 -66 -69 -58 -77 9 -9 4 -19 -18 -41 -16 -17 -34 -39 -40 -50 -9 -17 -8
-19 13 -16 12 2 31 11 41 21 20 20 54 15 73 -9 8 -11 39 -14 125 -14 109 1
115 2 132 25 33 46 37 70 16 101 -20 31 -25 79 -9 89 6 4 4 17 -5 35 -8 16
-15 36 -15 45 0 21 -12 19 -38 -5 -25 -23 -29 -15 -7 14 16 21 21 66 8 66 -5
0 -25 -13 -46 -29z m110 -243 c-3 -8 -6 -5 -6 6 -1 11 2 17 5 13 3 -3 4 -12 1
-19z"/>
<path d="M5756 314 c-8 -22 -8 -24 8 -24 21 0 28 16 12 29 -11 9 -15 8 -20 -5z"/>
<path d="M1244 259 c-8 -14 11 -33 25 -25 16 10 13 36 -3 36 -8 0 -18 -5 -22
-11z"/>
<path d="M1220 211 c0 -12 5 -21 10 -21 6 0 10 6 10 14 0 8 -4 18 -10 21 -5 3
-10 -3 -10 -14z"/>
<path d="M5636 154 c-26 -36 -45 -68 -43 -71 9 -8 67 49 67 66 0 9 7 27 16 39
9 13 14 25 11 28 -3 3 -26 -25 -51 -62z"/>
<path d="M6048 163 c6 -2 18 -2 25 0 6 3 1 5 -13 5 -14 0 -19 -2 -12 -5z"/>
<path d="M4451 75 c-1 -23 -6 -46 -13 -53 -16 -16 9 -24 57 -20 l37 3 -28 30
c-16 17 -34 41 -41 55 -11 24 -11 23 -12 -15z"/>
<path d="M7578 87 c-2 -7 -3 -28 -3 -47 l2 -35 911 -3 c621 -1 912 1 912 8 0
6 -12 15 -27 21 -16 6 -49 24 -74 40 l-46 29 -738 -10 c-405 -6 -744 -8 -754
-5 -38 12 -180 13 -183 2z"/>
<path d="M5944 75 c-10 -8 -14 -15 -8 -15 6 0 17 7 24 15 16 19 9 19 -16 0z"/>
<path d="M4533 37 c4 -10 7 -23 7 -28 0 -5 7 -9 15 -9 21 0 19 14 -7 36 -20
18 -21 18 -15 1z"/>
<path d="M4817 21 c3 -12 10 -21 15 -21 13 0 6 32 -9 37 -7 3 -9 -3 -6 -16z"/>
<path d="M7500 21 c0 -12 5 -21 10 -21 6 0 10 6 10 14 0 8 -4 18 -10 21 -5 3
-10 -3 -10 -14z"/>
<path d="M4346 15 c-4 -10 1 -15 14 -15 13 0 18 5 14 15 -4 8 -10 15 -14 15
-4 0 -10 -7 -14 -15z"/>
<path d="M4600 16 c0 -9 7 -16 16 -16 9 0 14 5 12 12 -6 18 -28 21 -28 4z"/>
<path d="M4710 15 c-10 -13 -9 -15 9 -15 11 0 21 4 21 9 0 18 -18 21 -30 6z"/>
<path d="M4390 10 c0 -5 5 -10 11 -10 5 0 7 5 4 10 -3 6 -8 10 -11 10 -2 0 -4
-4 -4 -10z"/>
</g>
</svg>
